ModelForces
version=1
nRows=4
nColumns=94
inDegrees=yes

This file contains the forces exerted on a model during a simulation.

A force is a generalized force, meaning that it can be either a force (N) or a torque (Nm).

Units are S.I. units (second, meters, Newtons, ...)
Angles are in degrees.

endheader 
time	addbrev_l	addlong_l	addmagDist_l	addmagIsch_l	addmagMid_l	addmagProx_l	bflh_l	bfsh_l	edl_l	ehl_l	fdl_l	fhl_l	gaslat_l	gasmed_l	glmax1_l	glmax2_l	glmax3_l	glmed1_l	glmed2_l	glmed3_l	glmin1_l	glmin2_l	glmin3_l	grac_l	iliacus_l	perbrev_l	perlong_l	piri_l	psoas_l	recfem_l	sart_l	semimem_l	semiten_l	soleus_l	tfl_l	tibant_l	tibpost_l	vasint_l	vaslat_l	vasmed_l	addbrev_r	addlong_r	addmagDist_r	addmagIsch_r	addmagMid_r	addmagProx_r	bflh_r	bfsh_r	edl_r	ehl_r	fdl_r	fhl_r	gaslat_r	gasmed_r	glmax1_r	glmax2_r	glmax3_r	glmed1_r	glmed2_r	glmed3_r	glmin1_r	glmin2_r	glmin3_r	grac_r	iliacus_r	perbrev_r	perlong_r	piri_r	psoas_r	recfem_r	sart_r	semimem_r	semiten_r	soleus_r	tfl_r	tibant_r	tibpost_r	vasint_r	vaslat_r	vasmed_r	lumbar_extension	lumbar_bending	lumbar_rotation	arm_flex_l	arm_add_l	arm_rot_l	arm_flex_r	arm_add_r	arm_rot_r	elbow_flex_l	elbow_flex_r	pro_sup_l	pro_sup_r	
          6.45500000	        163.52427505	        107.22945483	          7.79322967	          4.75478928	        101.98129276	        338.64577890	       1853.78496040	        567.74291348	        247.06282928	        151.25731371	          8.93133355	         53.18279476	        383.33605006	        595.36106685	          8.07461289	          4.28127020	          8.74619860	          9.39709337	          4.15246259	        255.52266196	          4.45049869	          3.05908463	         11.05319544	         10.86905551	        100.59057791	         81.13131287	        260.36607372	        738.52165546	       1746.65732388	        587.12493245	        221.93892913	        149.30553089	          8.22291799	         42.18845006	         -0.00001918	        806.43210938	         45.03460591	         11.41037855	       1540.64353817	         13.55528501	         55.43529114	          5.36537324	          5.03684203	          5.33449326	        252.07164202	        239.16093858	         13.37928469	        429.98895526	        586.60505552	        147.64459105	         97.45350966	         25.70584261	        348.76085898	        418.27127418	         74.74509714	         13.79411016	          9.88432862	        831.12192620	        371.53190100	         87.97277978	        114.82045280	        421.14083112	        161.72317456	         67.02321794	        118.69717890	         -0.00002318	        157.50318925	         31.05256111	        886.97818579	        329.68667751	        221.61511163	        280.52238820	          2.80345520	         33.45279125	        163.10461527	        470.79086809	        469.70658875	         16.50599587	         48.35893650	         23.37003218	        -61.44428786	        123.65377355	        -96.84647197	         25.16420428	        -13.48808977	          0.97377802	        -94.41059065	        -22.82270343	         28.63643718	        -20.48159370	         -5.59085302	          0.42968826	          0.55629039	
          6.47526316	         33.69419356	         15.35252911	          1.37326263	         -0.00002801	         20.27634990	        123.27982271	       1002.33609082	        582.40938349	        287.40380912	         95.91646450	         10.86874879	         49.61595030	        314.33594803	        478.01191300	          9.46391255	        570.08305142	          2.03830732	          4.61867831	          5.71602127	        540.43690182	          1.72782451	          2.13751262	        352.58688387	          2.94345386	         63.95243201	        157.36984833	        217.79832115	         96.56921226	       1137.78699569	        210.61303349	        297.11757529	         -0.00007381	         -0.00002017	         51.25826542	        124.51077319	        677.94636236	         87.67584507	          8.38148805	       1772.39461654	         13.90780777	         72.07227343	          0.64735133	          2.69780484	          0.54652507	        463.07638891	        625.76259881	         -0.00006505	        180.16531647	         52.75831958	        118.59161020	         27.91405493	         33.55285505	         37.51776833	         -0.00015326	         46.22928453	         15.27211175	          6.18351413	        209.57089179	        102.60774173	        377.36079372	         68.31653407	        191.66633850	        287.90007549	        233.37628654	         92.17827972	        235.59674915	        369.03667905	        461.87173895	        807.05033595	       1049.78652635	        273.08896536	          1.29101400	         -0.00002751	         -0.00030842	         86.18841110	        386.96233394	        124.19278712	        115.57472915	        250.79532093	        179.47341807	        -23.93971615	        -62.54598405	         77.57122851	         39.23241838	         31.03265705	         -0.48957901	       -104.19538380	        -16.33374437	         33.18400041	        -10.58872607	        -18.87964261	          0.40041230	          0.72046231	
          6.49552632	         41.63233570	         26.55934456	          3.80273636	          2.03215477	         22.89952637	        123.73566179	        898.28480407	        592.26731708	        347.67061073	         80.28635447	          6.46770893	         31.87600236	        295.94625578	        463.57506371	          7.91567025	        303.04640207	        150.03140859	          9.26065985	          5.40108421	        331.02795117	          3.75393795	          3.72987824	         22.11319971	          3.31671051	         42.48209314	         73.75954852	        179.91748513	        520.12139899	        720.22787199	        594.54035357	        276.20804855	        890.59655626	        402.07908475	         79.17690255	         -0.00001774	        609.38490589	         49.99918238	          8.58063680	        820.92006255	         14.06303720	        664.76913821	        978.38492075	          5.61726897	          5.14404914	        296.82559512	        560.12909817	         22.05729613	        474.49783261	        345.26467358	         26.66976103	         44.79011589	         12.43585694	         73.23194095	         19.30366371	         54.20748109	         23.46004207	         12.37172546	        688.10814939	        118.84774819	        522.80255555	        250.08557591	        354.70913100	        244.22340925	        200.88505618	        728.77725265	         22.05480870	        329.92834720	         -0.00005097	        905.85410404	       1714.21309094	        223.48847164	         52.94764198	          3.01345869	         -0.00030753	        315.77975481	        282.14825645	        212.17030853	         86.80201784	        188.20311478	        132.48469420	       -113.35849089	        -17.23084366	        -88.37482363	         40.75680159	        -48.82285478	         -1.03398938	       -108.72249653	         -8.87359481	         44.61270498	        -25.82979889	        -14.12291512	          0.15433749	          0.65254297	
          6.51578947	         10.44370724	          3.85979987	          1.15719292	         -0.00001193	          6.01512709	         42.32815387	       1051.76018758	        610.99122211	        376.35276078	         74.53448498	          4.26685886	         24.33076962	        299.77005273	        475.82394946	          2.74248202	        968.71970778	         56.42924607	         10.10540767	          2.94153257	        697.80076182	          3.87593597	          4.48062155	        520.46234655	          0.00001499	         28.94044560	        121.19917961	        162.78518634	        541.08659255	        468.60310319	        169.32213509	        303.50109452	       1883.65265658	         71.54730348	        103.64152716	        149.98386217	        551.42358405	         35.61039060	          9.97156607	       1081.14502684	         15.89771927	        751.71180468	       1179.96513438	          6.10235467	          5.32288494	        632.32014812	        627.59281388	         11.74041125	        217.42630180	        407.26269665	        127.42300945	         35.51776758	         50.65138467	         31.95955862	         -0.00015027	         28.46295959	         11.63643320	          7.14252839	        365.79966395	         56.05665371	        230.68734504	        240.09693687	        195.66018644	        265.23638230	        249.50966103	        848.65770154	        104.14963319	        169.16675420	        499.19156449	        970.90410169	       2274.77436373	        227.75669121	         30.24796806	          3.28624742	         -0.00030952	        354.99974071	        242.56577447	        200.00922034	         58.34205392	        127.07569535	         89.42864170	          4.77812644	        -77.09727328	       -151.11331915	         56.24567718	        -77.03301497	         -4.96266980	        -52.14494211	         25.63604660	         44.63227094	        -34.23183186	         11.49015781	         -1.00060093	          0.37291581	
